<svg xmlns="http://www.w3.org/2000/svg" width="225" height="225"><path fill="#FDD243" d="M175 56c3.146-.088 6.291-.14 9.438-.187l2.662-.077c8.393-.093 17.251 1.788 23.9 7.264 4.926 5.315 7.82 11.433 10.375 18.125l.76 1.99c6.983 19.487 5.06 47.998-3.635 66.573-4.888 8.793-11.852 14.177-21.5 17.312a115 115 0 0 1-8.37.227h-2.515a1566 1566 0 0 1-8.197-.032l-5.696-.008c-4.99-.008-9.979-.028-14.968-.05-5.094-.02-10.189-.03-15.283-.04Q126.986 167.066 112 167l1 6 1.999-.013q10.268-.066 20.535-.097 3.835-.016 7.671-.04c3.669-.025 7.337-.036 11.006-.045l3.482-.032h3.215l2.84-.014C166 173 166 173 168 175c.259 2.395.259 2.395.266 5.383l.007 3.289-.023 3.453.023 3.383c-.019 8.042-.21 16.077-5.328 22.758-12.867 11.472-30.46 11.933-46.699 11.974-2.28.01-4.558.041-6.838.072-16.38.12-34.507-1.508-46.889-13.567-6.224-7.15-6.096-15.589-6.015-24.616l-.005-3.993q0-4.164.034-8.328c.029-3.531.026-7.061.013-10.593-.008-3.404.007-6.807.02-10.211l-.008-3.801c.1-9.465 1.03-18.778 7.442-26.203 8.816-6.999 17.417-9.107 28.603-9.142l3.844-.021 2.025-.006q3.175-.012 6.349-.041c6.013-.052 12.025-.1 18.038-.116 3.691-.01 7.382-.04 11.073-.081q2.093-.019 4.187-.015c9.307.01 17.782-.482 25.283-6.508 6.007-7.611 8.633-13.693 8.844-23.437l.1-3.684q.09-3.812.172-7.625c.17-6.1.361-11.572 2.482-17.324m-39 135c-2.302 3.223-2.475 6.12-2 10 2.082 3.748 3.295 4.795 7.438 6 3.953 0 5.474-.618 8.562-3 2.324-1.92 2.324-1.92 2.438-5.25-.589-5.04-1.624-6.423-5.438-9.75-4.15-.582-7.56-.549-11 2"/><path fill="#3672A3" d="m100.98-.168 2.227-.01q2.317-.007 4.636-.007a963 963 0 0 0 6.964-.04C132.05-.29 148.384 1.387 162 13c6.518 7.822 6.299 16.114 6.266 25.836l.005 3.74q.002 3.905-.01 7.81c-.01 3.968 0 7.935.012 11.903q0 3.805-.007 7.61l.012 3.57c-.07 12.49-2.255 21.234-11.028 30.406-10.91 7.133-24.893 6.29-37.445 6.152l-6.856-.037q-5.318-.037-10.637-.086c-3.46-.03-6.921-.048-10.382-.064l-3.177-.04c-9.902-.034-19.745.86-27.753 7.2-9.217 10.697-9.142 22.393-9 35.813q.037 3.665.063 7.332l.035 3.26C52 166 52 166 51 168c-3.958.147-7.915.235-11.875.313l-3.36.126c-9.02.133-15.251-1.838-22.316-7.474C1.562 147.285-.528 129.85-.312 112.313l-.01-4.01c.08-14.887 1.965-30.159 12.697-41.428 7.943-7.195 15.238-9.039 25.812-8.989h2.455q4.001.002 8.003.016l5.56.005q7.308.006 14.614.024 7.46.014 14.921.02 14.63.016 29.26.049v-7H58l-.187-15.125-.083-4.739-.023-3.769-.048-3.84c.663-6.862 4.006-10.692 9.095-14.922 10-7.147 22.233-8.753 34.226-8.773M75 21c-2.413 1.99-2.413 1.99-2.375 5.875.07 3.183.228 3.934 2.25 6.563C78.689 36.242 81.255 36.409 86 36c2.365-1.867 3.66-3.32 5-6 .408-3.674.248-5.553-1.562-8.812C84.618 16.862 79.977 17.16 75 21"/><path fill="#2A5A7D" d="M126.836-.117c13.554.927 26.459 4.284 36.289 14.277 5.136 7.779 5.31 15.779 5.238 24.871l.002 3.73q-.004 3.89-.029 7.777c-.023 3.95-.02 7.899-.014 11.849q-.007 3.79-.021 7.582l.003 3.552c-.107 12.462-2.3 21.202-11.054 30.354-11.451 7.487-26.415 6.277-39.547 6.223l-3.984-.005q-5.178-.006-10.357-.024-5.31-.014-10.62-.02Q82.371 110.033 72 110c3.514-2.343 4.958-2.255 9.117-2.271l3.825-.031 2.046-.003q3.188-.008 6.375-.04c6.042-.056 12.083-.087 18.126-.111q5.549-.026 11.097-.085 2.1-.018 4.2-.018c11.25 0 22.66-.316 31.663-7.828 2.205-2.293 3.398-4.667 4.551-7.613l1.047-1.81c1.218-2.8 1.254-5.065 1.32-8.117l.089-3.621.064-3.905.08-4.028q.08-4.222.143-8.443c.054-3.59.132-7.177.216-10.766.061-2.774.108-5.549.151-8.324.034-1.96.081-3.921.129-5.882.107-9.41-1.076-16.608-7.239-24.104-6.658-5.653-16.596-9.232-25.312-9.25L131 4V3l-9-1c2-2 2-2 4.836-2.117"/><path fill="#34638A" d="M38.095 57.886h2.426c2.635 0 5.27.008 7.905.016l5.494.005q7.218.006 14.435.024 7.37.014 14.74.02Q97.548 57.967 112 58v1l-2.97.018q-13.902.086-27.804.218c-4.764.044-9.528.084-14.292.11q-6.906.041-13.81.117-2.625.025-5.251.035c-13.375.052-23.896.677-34.385 9.772-8.351 9.164-10.696 21.612-11.175 33.605l-.119 2.763C1.746 118.201 2.21 130.703 5 143l-2-1c-3.144-9.758-3.437-19.52-3.312-29.688l-.01-4.01c.08-14.886 1.965-30.158 12.697-41.427 7.91-7.165 15.187-9.04 25.72-8.989"/><path fill="#E7CF66" d="m68 121 2 1-1.277 1.32C65.236 127.11 63.26 129.646 63 135l-4 1v67c-2.664-2.664-2.258-3.946-2.275-7.668l-.029-3.603.003-3.917-.013-4.022q-.01-4.227-.002-8.454c.006-3.586-.01-7.172-.034-10.758-.015-2.775-.016-5.55-.013-8.324 0-1.957-.014-3.915-.028-5.872.05-9.8 1.068-18.526 7.391-26.382 2.25-1.875 2.25-1.875 4-3"/><path fill="#1B435C" d="M166 82h1c.726 6.682-1.329 11.435-5 17-6.349 7.531-13.878 9.748-23.435 10.564-6.957.536-13.887.562-20.862.534l-3.984-.005q-5.178-.006-10.357-.024-5.31-.014-10.62-.02Q82.371 110.033 72 110c3.514-2.343 4.958-2.255 9.117-2.271l3.825-.031 2.046-.003q3.188-.008 6.375-.04c6.042-.056 12.083-.087 18.126-.111q5.549-.026 11.097-.085 2.1-.018 4.2-.018c11.25 0 22.66-.316 31.663-7.828 2.205-2.293 3.398-4.667 4.551-7.613l1.125-2c1.143-2.613 1.491-5.185 1.875-8"/><path fill="#356D9B" d="M5 144c2 2 2 2 3.25 4.625C12.158 156.162 16.46 161.019 24 165l1-3 4 2 1-2 2 1c1.413 0 2.826-.06 4.238-.105q2.037-.043 4.075-.083l2.052-.076c3.261-.047 5.298.059 8.115 1.776.502.49 1.003.982 1.52 1.488l-1 2c-3.958.147-7.915.235-11.875.313l-3.36.126c-9.052.134-15.427-1.78-22.386-7.65C5 150.806 5 150.806 5 144"/><path fill="#436A89" d="M71 6v3c-2 2-2 2-4 2.938-2.321 1.03-2.321 1.03-4 4.062h-2c-.778 4.131-1.128 8.037-1.133 12.238l-.004 3.483.012 3.592-.012 3.65.004 3.463.004 3.169C59.729 47.952 59.729 47.952 61 49c1.595.123 3.196.178 4.795.205l3.094.06 3.365.051 3.426.063q5.441.097 10.882.184l7.358.13q9.04.162 18.08.307v1H58l-.187-15.125-.083-4.739-.023-3.769-.048-3.84c.568-5.877 2.92-9.627 7.404-13.34l2.097-1.769C69 7 69 7 71 6"/><path fill="#377AB1" d="m32 61-1 2-1.75.313C25.965 64.316 24.29 66.52 22 69l1 2h-7c-1.804 2.76-2.013 3.89-1.625 7.25L15 81l-2.312-1.062C9.952 78.676 9.952 78.676 7 80c.982-7.692 6.09-11.428 12-16 4.6-2.934 7.613-4.731 13-3"/><path fill="#F9C837" d="M144 188c2.966.424 4.891.93 7.438 2.563 3.065 1.72 5.102 1.678 8.562 1.437l-1 6h2l-1 3-5-1v5c-5.825 3.039-10.482 3.354-17 3v-2l3.188.188c4.233-.209 6.8-1.175 9.812-4.188.394-4.102.45-6.302-1.812-9.812-2.184-2.327-2.184-2.327-5.188-4.188"/><path fill="#F4C43B" d="M165 184h2c1.893 21.082 1.893 21.082-4.633 29.52-1.902 2.06-3.799 3.37-6.367 4.48l-2-1 1-2h3v-2h3c-.344-2.473-.344-2.473-1-5l-2-1v-3h2l1-3 1 2 2-1v-2h2l-1.062-2.937c-1.313-4.478-.7-8.526.062-13.063"/><path fill="#EBCD5C" d="M175 56h8l-2 4h-4v-2h-2l.048 3.165c.054 3.875.088 7.75.117 11.624q.022 2.516.061 5.031c.037 2.41.054 4.82.067 7.23.015.75.03 1.501.047 2.274.002 5.227.002 5.227-1.858 7.673-.49.33-.978.662-1.482 1.003q.141-6.857.317-13.715.057-2.328.105-4.658c.046-2.242.104-4.483.164-6.725l.035-2.078c.14-4.622.966-8.464 2.379-12.824"/><path fill="#2D5473" d="M5 144c2 2 2 2 3.25 4.625C12.019 155.893 16.378 161.578 24 165c4.92 1.455 10.043 1.11 15.125 1.063l2.746-.014q2.516-.014 5.032-.033A674 674 0 0 1 52 166l-1 2c-3.958.147-7.915.235-11.875.313l-3.36.126c-9.052.134-15.427-1.78-22.386-7.65C5 150.806 5 150.806 5 144"/><path fill="#F3C63A" d="M217 128c2 2 2 2 2.125 5.125L219 136h3v-8h2c-.313 7.361-1.94 13.309-5 20-1.78-3.282-2-5.285-2-9l-1.125-2.062L215 135c.875-2.062.875-2.062 2-4z"/><path fill="#FAC836" d="m199.5 159.75 2.406-.078L204 160l2 3c-5.73 3.804-10.814 3.166-17.375 2.688l-3.098-.186q-3.765-.23-7.527-.502v-1h14l1-3c2.341-1.17 3.894-1.2 6.5-1.25"/><path fill="#F0C541" d="M146 216c2 .188 2 .188 4 1l2 3a556 556 0 0 1-5.625 2l-3.164 1.125c-3.229.88-5.883 1.035-9.211.875l-1-4c3.287-.8 4.71-1.097 8 0l1-2v2l2-2z"/><path fill="#F4CD4A" d="M75 216c10.94.616 10.94.616 15 4v2l4 1c-7.835.612-13.804-.935-21-4l2-1z"/><path fill="#F7CB44" d="M217 73c5.222 6.27 7.736 14.906 7 23-2.724-2.353-3.814-4.625-5-8h-3l.219-1.758c.528-4.443.896-8.758.781-13.242"/><path fill="#FCDC4D" d="M89 116c2.733.228 5.45.417 8.188.563l2.271.13q2.77.158 5.541.307l-3 3v-2h-5l-1 2v-2l-3.312.5C89 119 89 119 86 119v-1c-4.287-.402-7.283.756-11.133 2.441C73 121 73 121 70 120c12.588-6.137 12.588-6.137 19-4"/><path fill="#3B6388" d="M71 6v3c-2 2-2 2-4 2.938-2.321 1.03-2.321 1.03-4 4.062h-2c-1.123 5.603-1.327 11.182-1.562 16.875l-.131 2.953Q59.148 39.413 59 43h-1c-.088-3.708-.14-7.416-.187-11.125l-.077-3.172c-.065-6.881.31-11.585 5.237-16.785l2.09-1.73 2.097-1.77C69 7 69 7 71 6"/><path fill="#356C9B" d="m112 50 3 1c.908 2.477 1 4.336 1 7l-2 3a59 59 0 0 1-7.633.074l-2.278-.08c-2.406-.088-4.81-.197-7.214-.306q-2.443-.096-4.887-.186C87.991 60.351 83.996 60.18 80 60v-1l32-1z"/><path fill="#3A7BB3" d="m72 5 1 2h2l-.875 1.688c-1.198 2.328-1.198 2.328-2 5C71 16 71 16 69.125 16.938c-2.573.075-3.948-.616-6.125-1.938 2.46-3.34 4.3-5.214 8-7z"/><path fill="#F0CE49" d="M60 206h3l2 4 1.875-.625L69 209c2.187 2.187 2.38 3.078 3 6l1 3c-4.804-1.456-8.68-4.269-12-8-.703-2.195-.703-2.195-1-4"/><path fill="#2E5E86" d="M90.375 19.125c2.53 2.92 2.724 6.086 2.625 9.875-.937 2.5-.937 2.5-2 4l-2-1 1-2c.527-3.953.284-5.569-1.937-8.937-3.868-2.605-5.825-2.233-10.27-1.458L76 20l1-3c4.45-2.225 9.207.15 13.375 2.125"/><path fill="#E5BF53" d="M144 188c3.234.27 4.766.799 7.25 2.938 2.425 4.244 2.563 8.242 2.75 13.062l-1.875.875c-2.258 1.062-2.258 1.062-4.125 3.125-2.383.195-2.383.195-5.125.125l-2.758-.055L138 208v-2l3.188.188c4.233-.209 6.8-1.175 9.812-4.188.394-4.102.45-6.302-1.812-9.812-2.184-2.327-2.184-2.327-5.188-4.188"/><path fill="#F6CE36" d="m147 184 1 2 4-2-1 5h-13l-1-2c3.512-2.408 5.727-3.366 10-3"/><path fill="#3979B2" d="m6 80 2 1-.254 2.52-.309 3.293-.316 3.269C6.824 93.065 6.824 93.065 8 96H6l-1 3-1-3 1-2H3c.412-4.97.796-9.445 3-14"/><path fill="#3879B0" d="M89 17c3 0 3 0 6 1q.29 2.218.563 4.438l.316 2.496L96 27l-1 1c.41 2.054.41 2.054 1 4l-2 1c-2.063-3.302-2.327-6.316-2.715-10.094-.337-2.253-1.08-3.978-2.285-5.906"/><path fill="#387BB1" d="m97 3-2 4c-1.666.043-3.334.04-5 0l-1-1-1 2-6-2c4.218-3.88 9.564-4.957 15-3"/><path fill="#ECC549" d="m135 191 1 2-1 2c-.415 4.672.3 7.175 3 11-3.287.8-4.71 1.097-8 0 1-2 1-2 3-4 .243-2.44.243-2.44.125-5.125l-.055-2.758L133 192z"/><path fill="#336993" d="M161 96c-1.491 3.795-3.757 5.61-7 8l-2-1c.188-2.375.188-2.375 1-5 2.89-1.597 4.69-2 8-2"/><path fill="#2D5A7E" d="M5 144c2 2 2 2 3.25 4.625A54.8 54.8 0 0 0 19 163c-5.383-.828-7.923-4.815-11-9-1.867-3.31-3-6.138-3-10"/><path fill="#397AAD" d="M72 35c4.75.875 4.75.875 7 2 1.373.069 2.75.085 4.125.063L87 37l1 2c-4.01 1.062-6.95.72-11 0l-2 1z"/><path fill="#2D6790" d="m127.152-.047 3.785.297 3.778.266C138 1 138 1 141 3c-3.406.778-6.508 1.1-10 1V3l-9-1c2-2 2-2 5.152-2.047"/><path fill="#387AB5" d="M63 17c1.365 2.73.649 4.017 0 7a481 481 0 0 0-.437 4.25L62 32l-2 1c-.081-2.104-.14-4.208-.187-6.312l-.106-3.551C60 20 60 20 61.512 18.082z"/><path fill="#E9C64C" d="M220 80c3.512 5.269 4.252 9.712 4 16-2.554-2.22-3.386-3.695-4-7a85 85 0 0 1-.062-4.75l.027-2.422z"/><path fill="#E6C447" d="M161 208h4c-1.561 3.831-3.914 6.281-7 9-2.312.813-2.312.813-4 1l1-3h3v-2h3z"/><path fill="#FDE04F" d="M59 136h3l1 4h-2l-1 12h-1z"/><path fill="#35678F" d="m112 50 3 1c.908 2.477 1 4.336 1 7l-2 3-6-1 4-2z"/><path fill="#E7CE5C" d="M86 116v1q-3.151 1.045-6.312 2.063l-3.551 1.16C73 121 73 121 70 120c5.549-2.818 9.741-4.533 16-4"/><path fill="#E7C755" d="m171 96 2 3h-2l-.187 2.75c-.997 3.988-2.462 5.016-5.813 7.25l-2-1 2.313-2.625c2.44-2.911 4.117-5.904 5.687-9.375"/><path fill="#F9C835" d="m159 210 2 1v2h-3v2h-3v2l-3-1 1-4h6z"/><path fill="#F9CA30" d="m141 218 1 3h-3v2h-6v-3c3.287-.8 4.71-1.097 8 0z"/><path fill="#E9C345" d="M206 162c-4.335 3.324-6.471 4.12-12 4l2-2h3v-2c3.133-1.044 3.99-.934 7 0"/><path fill="#F9C539" d="M165 184h2c.054 1.625.093 3.25.125 4.875l.07 2.742C167 194 167 194 165 196c-1.032-3.095-.975-4.526-.562-7.687l.308-2.45z"/><path fill="#3B6890" d="m22 60 3 1-9 7-2-2c2.615-2.12 5.196-4.13 8-6"/><path fill="#E9C444" d="M215 152c0 3.517-.824 4.371-3 7l-3-1 1-5z"/><path fill="#EDD55A" d="m68 121 2 1-6 7-2-2z"/><path fill="#EDCC57" d="M65 212h5l3 6c-2.972-1.125-5.334-2.223-8-4z"/><path fill="#2C648C" d="M71 6v3c-1.972 1.972-3.509 2.832-6 4l-2 1c1.502-4.206 4.286-5.739 8-8"/><path fill="#F0D259" d="m203 59 8 4v2l-8-2z"/><path fill="#2F69A6" d="M94 30v6l-3-1h-3v-2c4.5-3 4.5-3 6-3"/><path fill="#FCCE30" d="M216 143c2.139 2.139 2.427 3.133 3 6l-6-2z"/><path fill="#366A96" d="m135 104 5 4h-10z"/></svg>